<svg id="Capa_1" enable-background="new 0 0 448 448" height="512" viewBox="0 0 448 448" width="512" xmlns="http://www.w3.org/2000/svg"><path d="m312 0v416h22.616l-14.345-416z"/><path d="m238.616 32h-22.616v32h21.513z"/><path d="m264 432h-23.168l-.551 16h23.719z"/><path d="m264 0h-8.271l-14.345 416h22.616z"/><path d="m280 32h16v32h-16z"/><path d="m335.168 432h-23.168v16h23.719z"/><path d="m360 64v-32h-22.616l1.103 32z"/><path d="m136.016 432h-16.032l.011 16h16.01z"/><path d="m128 0c-22.056 0-40 21.532-40 48 0 16.875 7.559 32.72 19.726 41.352 7.495 5.265 11.982 13.828 12.046 22.987l.2 303.661h16.054l.2-303.661c.064-9.159 4.551-17.723 12.046-22.988 12.169-8.631 19.728-24.476 19.728-41.351 0-26.468-17.944-48-40-48z"/></svg>